<mxfile host="app.diagrams.net" modified="2021-04-09T02:56:07.823Z" agent="5.0 (Windows NT 10.0; Win64; x64) AppleWebKit/537.36 (KHTML, like Gecko) Chrome/89.0.4389.114 Safari/537.36" etag="CWJikqDqIM1uf7Tkiycc" version="14.5.8" type="github">
  <diagram id="VbgDE6oj9wfU6HXY0T4R" name="第 1 页">
    <mxGraphModel dx="1278" dy="492" grid="1" gridSize="10" guides="1" tooltips="1" connect="1" arrows="1" fold="1" page="1" pageScale="1" pageWidth="827" pageHeight="1169" math="0" shadow="0">
      <root>
        <mxCell id="0" />
        <mxCell id="1" parent="0" />
        <mxCell id="sLvcpBOjC5CjSjRGOrS--2" value="用户" style="shape=umlActor;verticalLabelPosition=bottom;verticalAlign=top;html=1;" vertex="1" parent="1">
          <mxGeometry x="140" y="405" width="50" height="80" as="geometry" />
        </mxCell>
        <mxCell id="sLvcpBOjC5CjSjRGOrS--3" value="企业发布者" style="shape=umlActor;verticalLabelPosition=bottom;verticalAlign=top;html=1;" vertex="1" parent="1">
          <mxGeometry x="140" y="520" width="50" height="80" as="geometry" />
        </mxCell>
        <mxCell id="sLvcpBOjC5CjSjRGOrS--4" value="内推发布者" style="shape=umlActor;verticalLabelPosition=bottom;verticalAlign=top;html=1;" vertex="1" parent="1">
          <mxGeometry x="140" y="640" width="50" height="80" as="geometry" />
        </mxCell>
        <mxCell id="sLvcpBOjC5CjSjRGOrS--30" style="edgeStyle=none;rounded=0;orthogonalLoop=1;jettySize=auto;html=1;exitX=1;exitY=0.5;exitDx=0;exitDy=0;entryX=0.004;entryY=0.62;entryDx=0;entryDy=0;entryPerimeter=0;" edge="1" parent="1" source="sLvcpBOjC5CjSjRGOrS--6" target="sLvcpBOjC5CjSjRGOrS--26">
          <mxGeometry relative="1" as="geometry" />
        </mxCell>
        <mxCell id="sLvcpBOjC5CjSjRGOrS--31" style="edgeStyle=none;rounded=0;orthogonalLoop=1;jettySize=auto;html=1;entryX=0;entryY=0.5;entryDx=0;entryDy=0;" edge="1" parent="1" source="sLvcpBOjC5CjSjRGOrS--6" target="sLvcpBOjC5CjSjRGOrS--27">
          <mxGeometry relative="1" as="geometry" />
        </mxCell>
        <mxCell id="sLvcpBOjC5CjSjRGOrS--32" style="edgeStyle=none;rounded=0;orthogonalLoop=1;jettySize=auto;html=1;entryX=0;entryY=0.5;entryDx=0;entryDy=0;exitX=1;exitY=0.5;exitDx=0;exitDy=0;" edge="1" parent="1" source="sLvcpBOjC5CjSjRGOrS--6" target="sLvcpBOjC5CjSjRGOrS--28">
          <mxGeometry relative="1" as="geometry" />
        </mxCell>
        <mxCell id="sLvcpBOjC5CjSjRGOrS--6" value="好友管理" style="ellipse;whiteSpace=wrap;html=1;" vertex="1" parent="1">
          <mxGeometry x="340" y="530" width="110" height="60" as="geometry" />
        </mxCell>
        <mxCell id="sLvcpBOjC5CjSjRGOrS--7" style="edgeStyle=none;rounded=0;orthogonalLoop=1;jettySize=auto;html=1;entryX=0;entryY=0.5;entryDx=0;entryDy=0;" edge="1" parent="1" source="sLvcpBOjC5CjSjRGOrS--2" target="sLvcpBOjC5CjSjRGOrS--6">
          <mxGeometry x="144" y="155" as="geometry" />
        </mxCell>
        <mxCell id="sLvcpBOjC5CjSjRGOrS--8" style="edgeStyle=none;rounded=0;orthogonalLoop=1;jettySize=auto;html=1;entryX=0;entryY=0.5;entryDx=0;entryDy=0;" edge="1" parent="1" source="sLvcpBOjC5CjSjRGOrS--3" target="sLvcpBOjC5CjSjRGOrS--6">
          <mxGeometry x="144" y="155" as="geometry" />
        </mxCell>
        <mxCell id="sLvcpBOjC5CjSjRGOrS--9" style="edgeStyle=none;rounded=0;orthogonalLoop=1;jettySize=auto;html=1;entryX=0;entryY=0.5;entryDx=0;entryDy=0;" edge="1" parent="1" source="sLvcpBOjC5CjSjRGOrS--4" target="sLvcpBOjC5CjSjRGOrS--6">
          <mxGeometry x="144" y="155" as="geometry" />
        </mxCell>
        <mxCell id="sLvcpBOjC5CjSjRGOrS--26" value="添加好友" style="ellipse;whiteSpace=wrap;html=1;" vertex="1" parent="1">
          <mxGeometry x="570" y="425" width="110" height="60" as="geometry" />
        </mxCell>
        <mxCell id="sLvcpBOjC5CjSjRGOrS--27" value="查找好友" style="ellipse;whiteSpace=wrap;html=1;" vertex="1" parent="1">
          <mxGeometry x="570" y="530" width="110" height="60" as="geometry" />
        </mxCell>
        <mxCell id="sLvcpBOjC5CjSjRGOrS--28" value="删除好友" style="ellipse;whiteSpace=wrap;html=1;" vertex="1" parent="1">
          <mxGeometry x="570" y="640" width="110" height="60" as="geometry" />
        </mxCell>
        <mxCell id="sLvcpBOjC5CjSjRGOrS--33" value="&lt;font style=&quot;font-size: 36px&quot;&gt;好友管理&lt;/font&gt;" style="text;html=1;strokeColor=none;fillColor=none;align=center;verticalAlign=middle;whiteSpace=wrap;rounded=0;" vertex="1" parent="1">
          <mxGeometry x="330" y="320" width="150" height="60" as="geometry" />
        </mxCell>
      </root>
    </mxGraphModel>
  </diagram>
</mxfile>
